<svg width="402" height="874" viewBox="0 0 402 874" fill="none" xmlns="http://www.w3.org/2000/svg">
<circle cx="215.5" cy="261.5" r="43.5" fill="#B2FA63"/>
<mask id="mask0_0_1121" style="mask-type:alpha" maskUnits="userSpaceOnUse" x="0" y="0" width="402" height="874">
<rect width="402" height="874" fill="url(#paint0_linear_0_1121)"/>
</mask>
<g mask="url(#mask0_0_1121)">
<circle cx="396" cy="272" r="183.5" stroke="#B2FA63"/>
</g>
<rect x="214.324" y="232" width="41.1792" height="40.8542" rx="10.2167" transform="rotate(43.8906 214.324 232)" fill="#1E2121"/>
<mask id="mask1_0_1121" style="mask-type:alpha" maskUnits="userSpaceOnUse" x="190" y="236" width="50" height="50">
<rect x="214.324" y="232" width="41.1792" height="40.8542" rx="10.2167" transform="rotate(43.8906 214.324 232)" fill="white"/>
</mask>
<g mask="url(#mask1_0_1121)">
<path d="M234.073 241.693L193.055 287.268L174.825 249.289L186.978 231.059L244.707 293.345L247.745 238.655L234.073 241.693Z" stroke="#A9FD4C" stroke-width="3.40557"/>
</g>
<rect x="345.65" y="430.996" width="21.2996" height="21.1315" rx="5.2845" transform="rotate(43.8906 345.65 430.996)" fill="#B2FA63"/>
<mask id="mask2_0_1121" style="mask-type:alpha" maskUnits="userSpaceOnUse" x="333" y="433" width="26" height="26">
<rect x="345.65" y="430.996" width="21.2996" height="21.1315" rx="5.2845" transform="rotate(43.8906 345.65 430.996)" fill="#D9D9D9"/>
</mask>
<g mask="url(#mask2_0_1121)">
<path d="M355.645 436.5L334.429 460.074L325 440.429L331.286 431L361.146 463.217L362.717 434.929L355.645 436.5Z" stroke="#1E2121" stroke-width="1.7615"/>
</g>
<circle cx="320.5" cy="106.5" r="15.5" fill="#B2FA63"/>
<rect x="320.232" y="96" width="16.3297" height="16.2008" rx="4.05145" transform="rotate(43.8906 320.232 96)" fill="#1E2121"/>
<mask id="mask3_0_1121" style="mask-type:alpha" maskUnits="userSpaceOnUse" x="310" y="97" width="21" height="21">
<rect x="320.232" y="96" width="16.3297" height="16.2008" rx="4.05145" transform="rotate(43.8906 320.232 96)" fill="#1E2121"/>
</mask>
<g mask="url(#mask3_0_1121)">
<path d="M327.895 100.22L311.629 118.293L304.4 103.232L309.219 96.0033L332.112 120.703L333.317 99.0155L327.895 100.22Z" stroke="#B2FA63" stroke-width="1.35048"/>
</g>
<defs>
<linearGradient id="paint0_linear_0_1121" x1="314.443" y1="-11.7389" x2="138.98" y2="901.739" gradientUnits="userSpaceOnUse">
<stop offset="0.0637539" stop-color="#2E2420"/>
<stop offset="0.238645" stop-color="#433630"/>
<stop offset="0.535897" stop-color="#40322C"/>
<stop offset="0.794634" stop-color="#201A16"/>
<stop offset="0.96869" stop-color="#0B0807"/>
</linearGradient>
</defs>
</svg>
