<svg width="35" height="35" viewBox="0 0 35 35" fill="none" xmlns="http://www.w3.org/2000/svg">
<circle cx="17.5" cy="17.5" r="17.5" fill="#656565"/>
<circle cx="30" cy="30" r="5" fill="#B2FA63"/>
<path d="M28.0312 30.5L29.3438 31.8125L31.9688 29" stroke="black" stroke-width="1.5" stroke-linecap="round" stroke-linejoin="round"/>
<path d="M19.1667 21.6667H13.3333V20H19.1667M21.6667 18.3333H13.3333V16.6667H21.6667M21.6667 15H13.3333V13.3333H21.6667M23.3333 10H11.6667C10.7417 10 10 10.7417 10 11.6667V23.3333C10 23.7754 10.1756 24.1993 10.4882 24.5118C10.8007 24.8244 11.2246 25 11.6667 25H23.3333C23.7754 25 24.1993 24.8244 24.5118 24.5118C24.8244 24.1993 25 23.7754 25 23.3333V11.6667C25 11.2246 24.8244 10.8007 24.5118 10.4882C24.1993 10.1756 23.7754 10 23.3333 10Z" fill="#B2FA63"/>
</svg>
