<svg width="26" height="26" viewBox="0 0 26 26" fill="none" xmlns="http://www.w3.org/2000/svg">
<circle cx="13" cy="13" r="12" stroke="#B2FA63" stroke-width="2"/>
<path d="M12.4228 15.5788C12.4186 15.4178 12.4165 15.2971 12.4165 15.2166C12.4165 14.7427 12.4799 14.3336 12.6068 13.9893C12.6998 13.7299 12.8499 13.4684 13.0571 13.2046C13.2093 13.0123 13.482 12.7328 13.8753 12.3662C14.2727 11.9951 14.5307 11.7 14.649 11.4809C14.7674 11.2618 14.8266 11.0226 14.8266 10.7632C14.8266 10.2938 14.6533 9.88241 14.3066 9.52918C13.9598 9.17147 13.5349 8.99262 13.0317 8.99262C12.5455 8.99262 12.1395 9.15359 11.814 9.47552C11.4884 9.79745 11.2748 10.3005 11.1734 10.9846L10 10.837C10.1057 9.92041 10.4186 9.21842 10.9387 8.73105C11.463 8.24368 12.1543 8 13.0127 8C13.9218 8 14.6469 8.26157 15.1882 8.78471C15.7294 9.30785 16 9.94053 16 10.6828C16 11.112 15.9049 11.5077 15.7146 11.8699C15.5243 12.2321 15.1522 12.6725 14.5983 13.1911C14.2262 13.5399 13.9831 13.797 13.8689 13.9624C13.7548 14.1279 13.6702 14.3179 13.6152 14.5325C13.5603 14.7471 13.5285 15.0959 13.5201 15.5788H12.4228ZM12.3531 18V16.6251H13.6533V18H12.3531Z" fill="white"/>
</svg>
