<svg width="18" height="20" viewBox="0 0 18 20" fill="none" xmlns="http://www.w3.org/2000/svg">
<path d="M9 4.04725e-09C10.5524 -5.69771e-05 12.0444 0.601566 13.1625 1.67847C14.2806 2.75537 14.9378 4.22371 14.996 5.775L15 6H16C16.5046 5.99984 16.9906 6.19041 17.3605 6.5335C17.7305 6.87659 17.9572 7.34685 17.995 7.85L18 8V18C18.0002 18.5046 17.8096 18.9906 17.4665 19.3605C17.1234 19.7305 16.6532 19.9572 16.15 19.995L16 20H2C1.49542 20.0002 1.00943 19.8096 0.639452 19.4665C0.269471 19.1234 0.0428434 18.6532 0.00500021 18.15L1.00268e-07 18V8C-0.000159579 7.49542 0.190406 7.00943 0.533497 6.63945C0.876588 6.26947 1.34684 6.04284 1.85 6.005L2 6H3C3 4.4087 3.63214 2.88258 4.75736 1.75736C5.88258 0.632141 7.4087 4.04725e-09 9 4.04725e-09ZM16 8H2V18H16V8ZM9 10C9.42659 10.0001 9.84196 10.1367 10.1854 10.3896C10.5289 10.6426 10.7825 10.9988 10.9092 11.4062C11.0358 11.8135 11.0289 12.2507 10.8895 12.6538C10.75 13.057 10.4853 13.405 10.134 13.647L10 13.732V15C9.99972 15.2549 9.90212 15.5 9.72715 15.6854C9.55218 15.8707 9.31305 15.9822 9.05861 15.9972C8.80416 16.0121 8.55362 15.9293 8.35817 15.7657C8.16271 15.6021 8.0371 15.3701 8.007 15.117L8 15V13.732C7.61874 13.5119 7.32077 13.1721 7.15231 12.7653C6.98384 12.3586 6.95429 11.9076 7.06824 11.4824C7.18219 11.0571 7.43326 10.6813 7.78253 10.4133C8.1318 10.1453 8.55975 10 9 10ZM9 2C7.93913 2 6.92172 2.42143 6.17157 3.17157C5.42143 3.92172 5 4.93913 5 6H13C13 4.93913 12.5786 3.92172 11.8284 3.17157C11.0783 2.42143 10.0609 2 9 2Z" fill="#FBF7F1"/>
</svg>
