<svg width="19" height="19" viewBox="0 0 19 19" fill="none" xmlns="http://www.w3.org/2000/svg">
<path d="M9.5 0C6.98131 0.00281621 4.56658 1.00461 2.7856 2.7856C1.00461 4.56658 0.00281621 6.98131 0 9.5C0.00422005 12.0183 1.00647 14.4322 2.78715 16.2129C4.56783 17.9935 6.98174 18.9958 9.5 19C12.0196 19 14.4359 17.9991 16.2175 16.2175C17.9991 14.4359 19 12.0196 19 9.5C19 6.98044 17.9991 4.56408 16.2175 2.78249C14.4359 1.00089 12.0196 0 9.5 0ZM15.2783 14.9819C14.7447 13.9057 13.9211 13.0001 12.9002 12.3671C11.8794 11.7342 10.7019 11.3991 9.50077 11.3998C8.29962 11.4004 7.12254 11.7367 6.10235 12.3707C5.08216 13.0047 4.25944 13.9112 3.72704 14.988C2.30654 13.5147 1.51502 11.5465 1.52 9.5C1.52 7.38357 2.36075 5.35383 3.85729 3.85729C5.35383 2.36075 7.38357 1.52 9.5 1.52C11.6164 1.52 13.6462 2.36075 15.1427 3.85729C16.6393 5.35383 17.48 7.38357 17.48 9.5C17.4848 11.5437 16.6953 13.5092 15.2783 14.9819ZM9.5 3.8C8.82359 3.8 8.16237 4.00058 7.59995 4.37637C7.03753 4.75217 6.59918 5.2863 6.34033 5.91122C6.08148 6.53615 6.01375 7.22379 6.14571 7.88721C6.27768 8.55062 6.6034 9.16001 7.0817 9.6383C7.55999 10.1166 8.16938 10.4423 8.83279 10.5743C9.49621 10.7062 10.1839 10.6385 10.8088 10.3797C11.4337 10.1208 11.9678 9.68247 12.3436 9.12005C12.7194 8.55763 12.92 7.89641 12.92 7.22C12.92 6.77088 12.8315 6.32616 12.6597 5.91122C12.4878 5.49629 12.2359 5.11927 11.9183 4.80169C11.6007 4.48412 11.2237 4.2322 10.8088 4.06033C10.3938 3.88846 9.94912 3.8 9.5 3.8Z" fill="#FBF7F1"/>
</svg>
