<svg width="35" height="35" viewBox="0 0 35 35" fill="none" xmlns="http://www.w3.org/2000/svg">
<circle cx="17.5" cy="17.5" r="17.5" fill="#656565"/>
<circle cx="30" cy="30" r="5" fill="#B2FA63"/>
<path d="M28.0312 30.2812L29.3438 31.5938L31.9688 28.7812" stroke="black" stroke-width="1.5" stroke-linecap="round" stroke-linejoin="round"/>
<path d="M22.4395 18.4847V13.0301C22.4395 12.2801 21.8258 11.6665 21.0758 11.6665H11.5304C10.7804 11.6665 10.1667 12.2801 10.1667 13.0301V18.4847C10.1667 19.2347 10.7804 19.8483 11.5304 19.8483H21.0758C21.8258 19.8483 22.4395 19.2347 22.4395 18.4847ZM16.3031 17.8029C15.1713 17.8029 14.2577 16.8892 14.2577 15.7574C14.2577 14.6256 15.1713 13.712 16.3031 13.712C17.4349 13.712 18.3486 14.6256 18.3486 15.7574C18.3486 16.8892 17.4349 17.8029 16.3031 17.8029ZM25.1667 13.712V21.212C25.1667 21.962 24.5531 22.5756 23.8031 22.5756H12.2122V21.212H23.8031V13.712H25.1667Z" fill="#B2FA63"/>
</svg>
