<svg width="35" height="35" viewBox="0 0 35 35" fill="none" xmlns="http://www.w3.org/2000/svg">
<circle cx="17.5" cy="17.5" r="17.5" fill="#656565"/>
<path d="M22.6061 19.1514V13.6969C22.6061 12.9469 21.9925 12.3333 21.2425 12.3333H11.697C10.947 12.3333 10.3334 12.9469 10.3334 13.6969V19.1514C10.3334 19.9014 10.947 20.5151 11.697 20.5151H21.2425C21.9925 20.5151 22.6061 19.9014 22.6061 19.1514ZM16.4697 18.4696C15.3379 18.4696 14.4243 17.556 14.4243 16.4242C14.4243 15.2923 15.3379 14.3787 16.4697 14.3787C17.6016 14.3787 18.5152 15.2923 18.5152 16.4242C18.5152 17.556 17.6016 18.4696 16.4697 18.4696ZM25.3334 14.3787V21.8787C25.3334 22.6287 24.7197 23.2423 23.9697 23.2423H12.3788V21.8787H23.9697V14.3787H25.3334Z" fill="white"/>
<circle cx="30" cy="29" r="5" fill="white"/>
<line x1="27" y1="29" x2="33" y2="29" stroke="black"/>
</svg>
